<svg version="1.1" id="Excel" xmlns="http://www.w3.org/2000/svg" x="0" y="0" viewBox="0 0 512 512">
    <path fill='#ee2b27' d="M10.4,61.6v380.8l280.1,49.8V11.8L10.4,61.6z M171.4,332.1l-23.5-61.7l-23.1,58.5H92.7l37.5-81.6l-34.8-80h33l21.3,55.2 l25.3-59.9l31.7-1.6l-39.6,85.5l41.2,88.3L171.4,332.1z"/>
    <path fill='#ee2b27' d="M489.3,61.1H300v27.8h71.2v50.1H300v15.1h71.2v50.1H300v15.1h71.2v50.1H300v15.1h71.2v50.2H300v15.4h71.2v50.1H300v32.2 h189.3c5.4,0,9.7-4.5,9.7-10V71.2C499,65.6,494.6,61.1,489.3,61.1z M466.2,400.3h-80.3v-50.1h80.3V400.3z M466.2,334.8h-80.3v-50.2 h80.3V334.8z M466.2,269.6h-80.3v-50.1h80.3V269.6z M466.2,204.3h-80.3v-50.2h80.3V204.3z M466.2,139.1h-80.3V88.9h80.3V139.1z"/>
</svg>
